<svg xmlns="http://www.w3.org/2000/svg" viewBox="0 0 900 600">
  <rect width="900" height="600" fill="#DE2910"/>
  <g fill="#FFDE00">
    <polygon points="150,100 162,140 205,140 172,165 185,210 150,185 115,210 128,165 95,140 138,140"/>
    <polygon points="300,60 307,85 335,85 312,105 320,135 300,115 280,135 288,105 265,85 293,85"/>
    <polygon points="300,150 307,175 335,175 312,195 320,225 300,205 280,225 288,195 265,175 293,175"/>
    <polygon points="360,90 367,115 395,115 372,135 380,165 360,145 340,165 348,135 325,115 353,115"/>
    <polygon points="360,210 367,235 395,235 372,255 380,285 360,265 340,285 348,255 325,235 353,235"/>
  </g>
</svg>
